<svg width="183" height="48" viewBox="0 0 183 48" fill="none" xmlns="http://www.w3.org/2000/svg">
<path d="M43.8295 26.7273V39H35.9886V17.1818H43.4318V21.3295H43.6591C44.1326 19.947 44.9659 18.8627 46.1591 18.0767C47.3617 17.2907 48.7633 16.8977 50.3636 16.8977C51.9072 16.8977 53.2472 17.2528 54.3835 17.9631C55.5294 18.6638 56.4148 19.6297 57.0398 20.8608C57.6742 22.0919 57.9867 23.4981 57.9773 25.0795V39H50.1364V26.7273C50.1458 25.6477 49.8712 24.8002 49.3125 24.1847C48.7633 23.5691 47.9962 23.2614 47.0114 23.2614C46.3674 23.2614 45.804 23.4034 45.321 23.6875C44.8475 23.9621 44.483 24.3598 44.2273 24.8807C43.9716 25.392 43.839 26.0076 43.8295 26.7273ZM72.3594 39.3977C69.992 39.3977 67.9654 38.929 66.2798 37.9915C64.5942 37.0445 63.3016 35.7282 62.402 34.0426C61.5024 32.3475 61.0526 30.3826 61.0526 28.1477C61.0526 25.9129 61.5024 23.9527 62.402 22.267C63.3016 20.572 64.5942 19.2557 66.2798 18.3182C67.9654 17.3712 69.992 16.8977 72.3594 16.8977C74.7268 16.8977 76.7533 17.3712 78.4389 18.3182C80.1245 19.2557 81.4171 20.572 82.3168 22.267C83.2164 23.9527 83.6662 25.9129 83.6662 28.1477C83.6662 30.3826 83.2164 32.3475 82.3168 34.0426C81.4171 35.7282 80.1245 37.0445 78.4389 37.9915C76.7533 38.929 74.7268 39.3977 72.3594 39.3977ZM72.4162 33.6023C73.0791 33.6023 73.652 33.3797 74.1349 32.9347C74.6179 32.4896 74.992 31.8551 75.2571 31.0312C75.5223 30.2074 75.6548 29.2273 75.6548 28.0909C75.6548 26.9451 75.5223 25.965 75.2571 25.1506C74.992 24.3267 74.6179 23.6922 74.1349 23.2472C73.652 22.8021 73.0791 22.5795 72.4162 22.5795C71.7154 22.5795 71.1141 22.8021 70.6122 23.2472C70.1103 23.6922 69.7268 24.3267 69.4616 25.1506C69.1965 25.965 69.0639 26.9451 69.0639 28.0909C69.0639 29.2273 69.1965 30.2074 69.4616 31.0312C69.7268 31.8551 70.1103 32.4896 70.6122 32.9347C71.1141 33.3797 71.7154 33.6023 72.4162 33.6023ZM108.173 17.1818L100.843 39H91.7521L84.4226 17.1818H92.6612L96.1839 31.6136H96.4112L99.9339 17.1818H108.173ZM115.935 39.3409C114.543 39.3409 113.312 39.1136 112.242 38.6591C111.182 38.1951 110.348 37.4943 109.742 36.5568C109.136 35.6193 108.833 34.4261 108.833 32.9773C108.833 31.7841 109.037 30.7661 109.444 29.9233C109.851 29.071 110.419 28.375 111.148 27.8352C111.878 27.2955 112.725 26.8835 113.691 26.5994C114.666 26.3153 115.718 26.1307 116.844 26.0455C118.066 25.9508 119.046 25.8371 119.785 25.7045C120.533 25.5625 121.073 25.3684 121.404 25.1222C121.736 24.8665 121.901 24.5303 121.901 24.1136V24.0568C121.901 23.4886 121.683 23.053 121.248 22.75C120.812 22.447 120.254 22.2955 119.572 22.2955C118.824 22.2955 118.213 22.4612 117.739 22.7926C117.275 23.1146 116.996 23.6117 116.901 24.2841H109.685C109.78 22.9583 110.201 21.7367 110.95 20.6193C111.707 19.4924 112.81 18.5928 114.259 17.9205C115.708 17.2386 117.517 16.8977 119.685 16.8977C121.248 16.8977 122.649 17.0824 123.89 17.4517C125.13 17.8116 126.186 18.3182 127.058 18.9716C127.929 19.6155 128.592 20.3731 129.046 21.2443C129.51 22.1061 129.742 23.0436 129.742 24.0568V39H122.413V35.9318H122.242C121.807 36.7462 121.276 37.4044 120.651 37.9062C120.036 38.4081 119.33 38.7727 118.535 39C117.749 39.2273 116.882 39.3409 115.935 39.3409ZM118.492 34.3977C119.089 34.3977 119.647 34.2746 120.168 34.0284C120.699 33.7822 121.129 33.4271 121.461 32.9631C121.792 32.4991 121.958 31.9356 121.958 31.2727V29.4545C121.75 29.5398 121.527 29.6203 121.29 29.696C121.063 29.7718 120.817 29.8428 120.552 29.9091C120.296 29.9754 120.022 30.0369 119.728 30.0938C119.444 30.1506 119.146 30.2027 118.833 30.25C118.227 30.3447 117.73 30.5009 117.342 30.7188C116.963 30.9271 116.679 31.1875 116.489 31.5C116.309 31.803 116.219 32.1439 116.219 32.5227C116.219 33.1288 116.433 33.5928 116.859 33.9148C117.285 34.2367 117.829 34.3977 118.492 34.3977Z" fill="#4EA8DE"/>
<path d="M141.386 39.2841C139.833 39.2841 138.403 38.8769 137.097 38.0625C135.799 37.2481 134.758 36.0123 133.972 34.3551C133.195 32.6979 132.807 30.6098 132.807 28.0909C132.807 25.4583 133.214 23.3182 134.028 21.6705C134.852 20.0227 135.913 18.8153 137.21 18.0483C138.517 17.2812 139.89 16.8977 141.33 16.8977C142.409 16.8977 143.356 17.0871 144.17 17.4659C144.985 17.8352 145.667 18.3324 146.216 18.9574C146.765 19.5729 147.182 20.25 147.466 20.9886H147.58V9.90909H155.42V39H147.636V35.4205H147.466C147.163 36.1591 146.727 36.822 146.159 37.4091C145.6 37.9867 144.919 38.446 144.114 38.7869C143.318 39.1184 142.409 39.2841 141.386 39.2841ZM144.284 33.2614C145.004 33.2614 145.619 33.053 146.131 32.6364C146.652 32.2102 147.049 31.6136 147.324 30.8466C147.608 30.0701 147.75 29.1515 147.75 28.0909C147.75 27.0114 147.608 26.0881 147.324 25.321C147.049 24.5445 146.652 23.9527 146.131 23.5455C145.619 23.1288 145.004 22.9205 144.284 22.9205C143.564 22.9205 142.949 23.1288 142.438 23.5455C141.936 23.9527 141.547 24.5445 141.273 25.321C141.008 26.0881 140.875 27.0114 140.875 28.0909C140.875 29.1705 141.008 30.0985 141.273 30.875C141.547 31.642 141.936 32.2339 142.438 32.6506C142.949 33.0578 143.564 33.2614 144.284 33.2614ZM169.781 39.3977C167.414 39.3977 165.387 38.929 163.702 37.9915C162.016 37.0445 160.723 35.7282 159.824 34.0426C158.924 32.3475 158.474 30.3826 158.474 28.1477C158.474 25.9129 158.924 23.9527 159.824 22.267C160.723 20.572 162.016 19.2557 163.702 18.3182C165.387 17.3712 167.414 16.8977 169.781 16.8977C172.149 16.8977 174.175 17.3712 175.861 18.3182C177.546 19.2557 178.839 20.572 179.739 22.267C180.638 23.9527 181.088 25.9129 181.088 28.1477C181.088 30.3826 180.638 32.3475 179.739 34.0426C178.839 35.7282 177.546 37.0445 175.861 37.9915C174.175 38.929 172.149 39.3977 169.781 39.3977ZM169.838 33.6023C170.501 33.6023 171.074 33.3797 171.557 32.9347C172.04 32.4896 172.414 31.8551 172.679 31.0312C172.944 30.2074 173.077 29.2273 173.077 28.0909C173.077 26.9451 172.944 25.965 172.679 25.1506C172.414 24.3267 172.04 23.6922 171.557 23.2472C171.074 22.8021 170.501 22.5795 169.838 22.5795C169.137 22.5795 168.536 22.8021 168.034 23.2472C167.532 23.6922 167.149 24.3267 166.884 25.1506C166.618 25.965 166.486 26.9451 166.486 28.0909C166.486 29.2273 166.618 30.2074 166.884 31.0312C167.149 31.8551 167.532 32.4896 168.034 32.9347C168.536 33.3797 169.137 33.6023 169.838 33.6023Z" fill="#5E60CE"/>
<g clip-path="url(#clip0_2102_107)">
<path d="M11.0214 12.933C14.1471 16.9011 15.8156 21.7944 15.7551 26.8155V28.0141L16.7864 28.6416C18.1188 29.4482 19.1126 30.6993 19.5865 32.1669C19.1704 31.8605 18.7351 31.5803 18.2831 31.3278L15.5331 29.7838L15.039 32.9001C14.9962 33.1755 14.9388 33.4485 14.8671 33.718H7.16138C7.0468 33.3655 6.9537 33.0129 6.86776 32.6463L6.24472 29.8261L3.70956 31.2362C3.28603 31.473 2.87711 31.7344 2.48495 32.0188C2.96812 30.5682 3.94111 29.3242 5.24211 28.4935L6.22323 27.866V26.7521C6.24093 21.7513 7.92955 16.8952 11.0286 12.933H11.0214ZM11.0286 10C10.8679 10.0004 10.7127 10.058 10.5917 10.1622L10.5273 10.2186C6.39766 14.7656 4.10454 20.6454 4.08196 26.745C2.32955 27.8643 1.03238 29.5543 0.417141 31.5197C-0.198101 33.485 -0.0922939 35.6007 0.716072 37.4971C1.56764 35.6455 2.99119 34.1058 4.78378 33.0975C4.96356 33.8642 5.20298 34.6161 5.49993 35.3467C5.53759 35.4871 5.62106 35.6114 5.73751 35.7006C5.85396 35.7898 5.99694 35.8388 6.14446 35.8402H16.0846C16.2851 35.8402 16.4856 35.6498 16.5859 35.3537C16.8757 34.6592 17.0777 33.9322 17.1874 33.1892C18.9834 34.1932 20.4082 35.7342 21.2551 37.5887C22.1123 35.7017 22.245 33.5727 21.6286 31.5967C21.0123 29.6206 19.6887 27.9319 17.9036 26.8437C17.9744 20.7082 15.6934 14.7718 11.5156 10.2186C11.4533 10.1501 11.3772 10.0952 11.2921 10.0576C11.2069 10.0199 11.1147 10.0003 11.0214 10H11.0286Z" fill="#4EA8DE"/>
<path d="M11.0213 26.1598C10.4713 26.1598 9.93351 25.9995 9.47587 25.699C9.01822 25.3986 8.66116 24.9715 8.44969 24.4716C8.23822 23.9716 8.18181 23.4213 8.28758 22.8898C8.39334 22.3584 8.65653 21.8697 9.04399 21.4853C9.43144 21.1009 9.92582 20.838 10.4648 20.7298C11.0038 20.6216 11.5632 20.6729 12.0726 20.8773C12.582 21.0816 13.0186 21.4298 13.3272 21.8781C13.6359 22.3263 13.8029 22.8545 13.8071 23.396C13.8157 23.7469 13.7539 24.0961 13.6254 24.4235C13.4969 24.751 13.304 25.0503 13.058 25.3043C12.8119 25.5583 12.5174 25.7622 12.1913 25.9041C11.8652 26.0461 11.5139 26.1234 11.1574 26.1316C11.1123 26.1387 11.0664 26.1387 11.0213 26.1316V26.1598Z" fill="#4EA8DE"/>
<path d="M14.8957 37.5958C14.7165 37.5901 14.538 37.6198 14.3706 37.683C14.2032 37.7462 14.0503 37.8416 13.9209 37.9638C13.7915 38.086 13.6881 38.2323 13.6169 38.3943C13.5458 38.5563 13.5082 38.7307 13.5063 38.9072V43.067C13.5063 43.4297 13.6527 43.7776 13.9133 44.0342C14.1738 44.2907 14.5272 44.4348 14.8957 44.4348C15.2641 44.4348 15.6175 44.2907 15.8781 44.0342C16.1386 43.7776 16.285 43.4297 16.285 43.067V38.9636C16.2907 38.7877 16.2608 38.6126 16.1971 38.4482C16.1333 38.2839 16.037 38.1337 15.9137 38.0064C15.7904 37.879 15.6425 37.7772 15.4788 37.7067C15.3151 37.6362 15.1388 37.5985 14.9601 37.5958H14.8957Z" fill="#5E60CE"/>
<path d="M7.1613 37.5958C6.97906 37.5863 6.79675 37.613 6.62521 37.6743C6.45367 37.7356 6.29641 37.8302 6.16278 37.9526C6.02915 38.0749 5.92188 38.2225 5.84736 38.3865C5.77284 38.5505 5.73259 38.7275 5.729 38.9072V43.067C5.729 43.4297 5.87538 43.7777 6.13593 44.0342C6.39648 44.2907 6.74986 44.4348 7.11833 44.4348C7.4868 44.4348 7.84018 44.2907 8.10073 44.0342C8.36128 43.7777 8.50765 43.4297 8.50765 43.067V38.9636C8.51337 38.7877 8.48349 38.6126 8.41974 38.4482C8.35599 38.2839 8.25965 38.1337 8.13634 38.0064C8.01302 37.879 7.8652 37.7772 7.70149 37.7067C7.53777 37.6362 7.36144 37.5985 7.18278 37.5958H7.1613Z" fill="#5E60CE"/>
<path d="M10.9211 37.5958C10.7424 37.592 10.5647 37.623 10.3981 37.6869C10.2316 37.7507 10.0795 37.8463 9.95044 37.9681C9.82142 38.0899 9.71804 38.2355 9.6462 38.3966C9.57435 38.5577 9.53546 38.7312 9.53174 38.9072V44.6392C9.53174 45.002 9.67811 45.3499 9.93866 45.6064C10.1992 45.8629 10.5526 46.007 10.9211 46.007C11.2895 46.007 11.6429 45.8629 11.9035 45.6064C12.164 45.3499 12.3104 45.002 12.3104 44.6392V38.9988C12.3161 38.823 12.2862 38.6478 12.2225 38.4835C12.1587 38.3191 12.0624 38.1689 11.9391 38.0416C11.8158 37.9143 11.6679 37.8124 11.5042 37.7419C11.3405 37.6714 11.1642 37.6337 10.9855 37.631L10.9211 37.5958Z" fill="#5E60CE"/>
</g>
<defs>
<clipPath id="clip0_2102_107">
<rect width="22" height="36" fill="white" transform="translate(0 10)"/>
</clipPath>
</defs>
</svg>
